<svg width="637" height="559" viewBox="0 0 637 559" fill="none" xmlns="http://www.w3.org/2000/svg">
<g opacity="0.05">
<g clip-path="url(#clip0)">
<path d="M525.683 355.647H566.699V551.67H525.683V355.647Z" fill="#333333"/>
<path d="M536.994 345.709H555.637V356.765H536.994V345.709Z" fill="#333333"/>
<path d="M540.847 339.25H551.66V345.585H540.847V339.25Z" fill="#333333"/>
<path d="M546.937 355.274L546.191 248.443L545.57 355.274H546.937Z" fill="#333333"/>
<path opacity="0.09" d="M544.078 370.43H548.429V374.777H544.078V370.43Z" fill="white"/>
<path opacity="0.33" d="M544.078 384.218H548.429V388.566H544.078V384.218Z" fill="white"/>
<path opacity="0.37" d="M544.078 398.131H548.429V402.479H544.078V398.131Z" fill="white"/>
<path opacity="0.14" d="M544.078 411.92H548.429V416.268H544.078V411.92Z" fill="white"/>
<path opacity="0.3" d="M544.078 425.833H548.429V430.181H544.078V425.833Z" fill="white"/>
<path opacity="0.16" d="M544.078 439.621H548.429V443.969H544.078V439.621Z" fill="white"/>
<path opacity="0.34" d="M544.078 453.534H548.429V457.882H544.078V453.534Z" fill="white"/>
<path opacity="0.29" d="M544.078 467.323H548.429V471.671H544.078V467.323Z" fill="white"/>
<path opacity="0.12" d="M544.078 481.236H548.429V485.584H544.078V481.236Z" fill="white"/>
<path d="M600.631 399.995H729.148V571.049H600.631V399.995Z" fill="#4D4D4D"/>
<path d="M634.314 407.075H641.15V413.907H634.314V407.075Z" fill="white"/>
<path d="M625.241 407.075H632.077V413.907H625.241V407.075Z" fill="white"/>
<path d="M634.314 416.019H641.15V422.852H634.314V416.019Z" fill="white"/>
<path d="M625.241 416.019H632.077V422.852H625.241V416.019Z" fill="white"/>
<path d="M634.314 424.963H641.15V431.796H634.314V424.963Z" fill="white"/>
<path d="M625.241 424.963H632.077V431.796H625.241V424.963Z" fill="white"/>
<path d="M634.314 433.783H641.15V440.615H634.314V433.783Z" fill="white"/>
<path d="M625.241 433.783H632.077V440.615H625.241V433.783Z" fill="white"/>
<path d="M634.314 442.727H641.15V449.559H634.314V442.727Z" fill="white"/>
<path d="M625.241 442.727H632.077V449.559H625.241V442.727Z" fill="white"/>
<path d="M634.314 451.671H641.15V458.503H634.314V451.671Z" fill="white"/>
<path d="M625.241 451.671H632.077V458.503H625.241V451.671Z" fill="white"/>
<path d="M634.314 460.615H641.15V467.447H634.314V460.615Z" fill="white"/>
<path d="M625.241 460.615H632.077V467.447H625.241V460.615Z" fill="white"/>
<path d="M634.314 469.559H641.15V476.391H634.314V469.559Z" fill="white"/>
<path d="M625.241 469.559H632.077V476.391H625.241V469.559Z" fill="white"/>
<path d="M634.314 478.379H641.15V485.211H634.314V478.379Z" fill="white"/>
<path d="M625.241 478.379H632.077V485.211H625.241V478.379Z" fill="white"/>
<path d="M634.314 487.323H641.15V494.155H634.314V487.323Z" fill="white"/>
<path d="M625.241 487.323H632.077V494.155H625.241V487.323Z" fill="white"/>
<path d="M634.314 496.267H641.15V503.099H634.314V496.267Z" fill="white"/>
<path d="M625.241 496.267H632.077V503.099H625.241V496.267Z" fill="white"/>
<path d="M634.314 505.211H641.15V512.043H634.314V505.211Z" fill="white"/>
<path d="M625.241 505.211H632.077V512.043H625.241V505.211Z" fill="white"/>
<path d="M634.314 514.155H641.15V520.987H634.314V514.155Z" fill="white"/>
<path d="M625.241 514.155H632.077V520.987H625.241V514.155Z" fill="white"/>
<path d="M634.314 522.975H641.15V529.807H634.314V522.975Z" fill="white"/>
<path d="M625.241 522.975H632.077V529.807H625.241V522.975Z" fill="white"/>
<path d="M616.167 522.975H623.003V529.807H616.167V522.975Z" fill="white"/>
<path d="M634.314 531.919H641.15V538.751H634.314V531.919Z" fill="white"/>
<path d="M625.241 531.919H632.077V538.751H625.241V531.919Z" fill="white"/>
<path d="M616.167 531.919H623.003V538.751H616.167V531.919Z" fill="white"/>
<path d="M634.314 540.863H641.15V547.695H634.314V540.863Z" fill="white"/>
<path d="M625.241 540.863H632.077V547.695H625.241V540.863Z" fill="white"/>
<path d="M616.167 540.863H623.003V547.695H616.167V540.863Z" fill="white"/>
<path d="M634.314 549.807H641.15V556.639H634.314V549.807Z" fill="white"/>
<path d="M625.241 549.807H632.077V556.639H625.241V549.807Z" fill="white"/>
<path d="M616.167 549.807H623.003V556.639H616.167V549.807Z" fill="white"/>
<path d="M634.314 558.75H641.15V565.583H634.314V558.75Z" fill="white"/>
<path d="M625.241 558.75H632.077V565.583H625.241V558.75Z" fill="white"/>
<path d="M616.167 558.75H623.003V565.583H616.167V558.75Z" fill="white"/>
<path d="M619.647 382.604H710.131V399.995H619.647V382.604Z" fill="#4D4D4D"/>
<path opacity="0.19" d="M616.167 407.075H623.003V413.907H616.167V407.075Z" fill="white"/>
<path opacity="0.24" d="M616.167 416.019H623.003V422.851H616.167V416.019Z" fill="white"/>
<path opacity="0.29" d="M616.167 424.963H623.003V431.795H616.167V424.963Z" fill="white"/>
<path opacity="0.39" d="M616.167 433.783H623.003V440.615H616.167V433.783Z" fill="white"/>
<path opacity="0.21" d="M616.167 442.727H623.003V449.559H616.167V442.727Z" fill="white"/>
<path opacity="0.48" d="M616.167 451.671H623.003V458.503H616.167V451.671Z" fill="white"/>
<path opacity="0.32" d="M616.167 460.615H623.003V467.447H616.167V460.615Z" fill="white"/>
<path opacity="0.13" d="M616.167 469.559H623.003V476.391H616.167V469.559Z" fill="white"/>
<path opacity="0.19" d="M616.167 478.379H623.003V485.211H616.167V478.379Z" fill="white"/>
<path opacity="0.03" d="M616.167 487.323H623.003V494.155H616.167V487.323Z" fill="white"/>
<path opacity="0.36" d="M616.167 496.267H623.003V503.099H616.167V496.267Z" fill="white"/>
<path opacity="0.25" d="M616.167 505.211H623.003V512.043H616.167V505.211Z" fill="white"/>
<path d="M616.167 514.155H623.003V520.987H616.167V514.155Z" fill="white"/>
<path d="M340.117 477.633H381.133V573.657H340.117V477.633Z" fill="#333333"/>
<path d="M362.489 472.789H381.133V478.254H362.489V472.789Z" fill="#333333"/>
<path d="M370.319 469.683H381.133V472.789H370.319V469.683Z" fill="#333333"/>
<path opacity="0.06" d="M357.269 484.341H363.98V489.31H357.269V484.341Z" fill="white"/>
<path opacity="0.12" d="M357.269 496.639H363.98V501.608H357.269V496.639Z" fill="white"/>
<path opacity="0.19" d="M357.269 521.235H363.98V526.204H357.269V521.235Z" fill="white"/>
<path opacity="0.14" d="M357.269 545.831H363.98V550.8H357.269V545.831Z" fill="white"/>
<path opacity="0.1" d="M357.269 558.129H363.98V563.098H357.269V558.129Z" fill="white"/>
<path d="M443.03 488.068H499.209V539.496H443.03V488.068Z" fill="#333333"/>
<path d="M451.854 483.472H490.26V505.583H451.854V483.472Z" fill="#333333"/>
<path d="M438.928 520.49H495.108V571.918H438.928V520.49Z" fill="#333333"/>
<path d="M447.877 515.894H486.283V538.005H447.877V515.894Z" fill="#333333"/>
<path d="M364.105 513.658H420.284V572.912H364.105V513.658Z" fill="#333333"/>
<path d="M372.929 508.44H411.335V534.03H372.929V508.44Z" fill="#333333"/>
<path d="M176.052 531.67H232.232V588.937H176.052V531.67Z" fill="#333333"/>
<path d="M184.877 526.577H223.283V551.297H184.877V526.577Z" fill="#333333"/>
<path d="M297.858 413.41H360.625V572.788H297.858V413.41Z" fill="#333333"/>
<path opacity="0.46" d="M342.354 420.615H357.517V423.473H342.354V420.615Z" fill="#E6E6E6"/>
<path opacity="0.34" d="M321.597 420.615H336.761V423.473H321.597V420.615Z" fill="#E6E6E6"/>
<path opacity="0.52" d="M300.965 420.615H316.128V423.473H300.965V420.615Z" fill="#E6E6E6"/>
<path opacity="0.54" d="M342.354 427.199H357.517V430.056H342.354V427.199Z" fill="#E6E6E6"/>
<path opacity="0.3" d="M321.597 427.199H336.761V430.056H321.597V427.199Z" fill="#E6E6E6"/>
<path opacity="0.06" d="M300.965 427.199H316.128V430.056H300.965V427.199Z" fill="#E6E6E6"/>
<path opacity="0.15" d="M342.354 433.783H357.517V436.64H342.354V433.783Z" fill="#E6E6E6"/>
<path opacity="0.42" d="M321.597 433.783H336.761V436.64H321.597V433.783Z" fill="#E6E6E6"/>
<path opacity="0.48" d="M300.965 433.783H316.128V436.64H300.965V433.783Z" fill="#E6E6E6"/>
<path opacity="0.18" d="M342.354 440.367H357.517V443.224H342.354V440.367Z" fill="#E6E6E6"/>
<path opacity="0.28" d="M300.965 440.367H316.128V443.224H300.965V440.367Z" fill="#E6E6E6"/>
<path opacity="0.29" d="M342.354 446.95H357.517V449.808H342.354V446.95Z" fill="#E6E6E6"/>
<path opacity="0.28" d="M321.597 446.95H336.761V449.808H321.597V446.95Z" fill="#E6E6E6"/>
<path opacity="0.56" d="M300.965 446.95H316.128V449.808H300.965V446.95Z" fill="#E6E6E6"/>
<path opacity="0.41" d="M342.354 453.534H357.517V456.392H342.354V453.534Z" fill="#E6E6E6"/>
<path opacity="0.16" d="M321.597 453.534H336.761V456.392H321.597V453.534Z" fill="#E6E6E6"/>
<path opacity="0.4" d="M300.965 453.534H316.128V456.392H300.965V453.534Z" fill="#E6E6E6"/>
<path opacity="0.1" d="M342.354 460.118H357.517V462.975H342.354V460.118Z" fill="#E6E6E6"/>
<path opacity="0.17" d="M321.597 460.118H336.761V462.975H321.597V460.118Z" fill="#E6E6E6"/>
<path opacity="0.08" d="M300.965 460.118H316.128V462.975H300.965V460.118Z" fill="#E6E6E6"/>
<path opacity="0.49" d="M342.354 466.702H357.517V469.559H342.354V466.702Z" fill="#E6E6E6"/>
<path opacity="0.58" d="M321.597 466.702H336.761V469.559H321.597V466.702Z" fill="#E6E6E6"/>
<path opacity="0.58" d="M300.965 466.702H316.128V469.559H300.965V466.702Z" fill="#E6E6E6"/>
<path opacity="0.26" d="M342.354 473.286H357.517V476.143H342.354V473.286Z" fill="#E6E6E6"/>
<path opacity="0.37" d="M321.597 473.286H336.761V476.143H321.597V473.286Z" fill="#E6E6E6"/>
<path opacity="0.34" d="M300.965 473.286H316.128V476.143H300.965V473.286Z" fill="#E6E6E6"/>
<path opacity="0.55" d="M342.354 479.869H357.517V482.727H342.354V479.869Z" fill="#E6E6E6"/>
<path opacity="0.12" d="M321.597 479.869H336.761V482.727H321.597V479.869Z" fill="#E6E6E6"/>
<path opacity="0.6" d="M300.965 479.869H316.128V482.727H300.965V479.869Z" fill="#E6E6E6"/>
<path opacity="0.02" d="M342.354 486.453H357.517V489.31H342.354V486.453Z" fill="#E6E6E6"/>
<path opacity="0.28" d="M321.597 486.453H336.761V489.31H321.597V486.453Z" fill="#E6E6E6"/>
<path opacity="0.21" d="M300.965 486.453H316.128V489.31H300.965V486.453Z" fill="#E6E6E6"/>
<path opacity="0.57" d="M342.354 493.037H357.517V495.894H342.354V493.037Z" fill="#E6E6E6"/>
<path opacity="0.38" d="M321.597 493.037H336.761V495.894H321.597V493.037Z" fill="#E6E6E6"/>
<path opacity="0.25" d="M300.965 493.037H316.128V495.894H300.965V493.037Z" fill="#E6E6E6"/>
<path opacity="0.15" d="M342.354 499.621H357.517V502.478H342.354V499.621Z" fill="#E6E6E6"/>
<path opacity="0.47" d="M321.597 499.621H336.761V502.478H321.597V499.621Z" fill="#E6E6E6"/>
<path opacity="0.3" d="M300.965 499.621H316.128V502.478H300.965V499.621Z" fill="#E6E6E6"/>
<path opacity="0.4" d="M342.354 506.205H357.517V509.062H342.354V506.205Z" fill="#E6E6E6"/>
<path opacity="0.39" d="M321.597 506.205H336.761V509.062H321.597V506.205Z" fill="#E6E6E6"/>
<path opacity="0.24" d="M300.965 506.205H316.128V509.062H300.965V506.205Z" fill="#E6E6E6"/>
<path opacity="0.46" d="M342.354 512.788H357.517V515.646H342.354V512.788Z" fill="#E6E6E6"/>
<path opacity="0.22" d="M321.597 512.788H336.761V515.646H321.597V512.788Z" fill="#E6E6E6"/>
<path opacity="0.11" d="M300.965 512.788H316.128V515.646H300.965V512.788Z" fill="#E6E6E6"/>
<path opacity="0.11" d="M321.597 519.372H336.761V522.229H321.597V519.372Z" fill="#E6E6E6"/>
<path opacity="0.02" d="M300.965 519.372H316.128V522.229H300.965V519.372Z" fill="#E6E6E6"/>
<path opacity="0.27" d="M342.354 525.956H357.517V528.813H342.354V525.956Z" fill="#E6E6E6"/>
<path opacity="0.21" d="M321.597 525.956H336.761V528.813H321.597V525.956Z" fill="#E6E6E6"/>
<path opacity="0.49" d="M300.965 525.956H316.128V528.813H300.965V525.956Z" fill="#E6E6E6"/>
<path opacity="0.6" d="M342.354 532.54H357.517V535.397H342.354V532.54Z" fill="#E6E6E6"/>
<path opacity="0.31" d="M321.597 532.54H336.761V535.397H321.597V532.54Z" fill="#E6E6E6"/>
<path opacity="0.22" d="M300.965 532.54H316.128V535.397H300.965V532.54Z" fill="#E6E6E6"/>
<path opacity="0.54" d="M342.354 539.124H357.517V541.981H342.354V539.124Z" fill="#E6E6E6"/>
<path opacity="0.6" d="M321.597 539.124H336.761V541.981H321.597V539.124Z" fill="#E6E6E6"/>
<path opacity="0.08" d="M300.965 539.124H316.128V541.981H300.965V539.124Z" fill="#E6E6E6"/>
<path opacity="0.55" d="M321.597 545.707H336.761V548.564H321.597V545.707Z" fill="#E6E6E6"/>
<path d="M300.965 545.707H316.128V548.564H300.965V545.707Z" fill="#E6E6E6"/>
<path opacity="0.6" d="M341.359 420.615H342.354V548.564H341.359V420.615Z" fill="#E6E6E6"/>
<path opacity="0.6" d="M316.128 420.615H317.123V548.564H316.128V420.615Z" fill="#E6E6E6"/>
<path d="M266.536 413.41H297.858V572.788H266.536V413.41Z" fill="#4D4D4D"/>
<path opacity="0.69" d="M271.135 420.615H294.75V423.473H271.135V420.615Z" fill="#E6E6E6"/>
<path opacity="0.79" d="M271.135 427.199H294.75V430.056H271.135V427.199Z" fill="#E6E6E6"/>
<path opacity="0.19" d="M271.135 433.783H294.75V436.64H271.135V433.783Z" fill="#E6E6E6"/>
<path opacity="0.88" d="M271.135 440.367H294.75V443.224H271.135V440.367Z" fill="#E6E6E6"/>
<path opacity="0.5" d="M271.135 446.95H294.75V449.808H271.135V446.95Z" fill="#E6E6E6"/>
<path opacity="0.25" d="M271.135 453.534H294.75V456.392H271.135V453.534Z" fill="#E6E6E6"/>
<path opacity="0.91" d="M271.135 460.118H294.75V462.975H271.135V460.118Z" fill="#E6E6E6"/>
<path opacity="0.02" d="M271.135 466.702H294.75V469.559H271.135V466.702Z" fill="#E6E6E6"/>
<path opacity="0.53" d="M271.135 473.286H294.75V476.143H271.135V473.286Z" fill="#E6E6E6"/>
<path opacity="0.65" d="M271.135 479.869H294.75V482.727H271.135V479.869Z" fill="#E6E6E6"/>
<path d="M271.135 486.453H294.75V489.31H271.135V486.453Z" fill="#E6E6E6"/>
<path opacity="0.8" d="M271.135 493.037H294.75V495.894H271.135V493.037Z" fill="#E6E6E6"/>
<path opacity="0.82" d="M271.135 499.621H294.75V502.478H271.135V499.621Z" fill="#E6E6E6"/>
<path opacity="0.75" d="M271.135 506.205H294.75V509.062H271.135V506.205Z" fill="#E6E6E6"/>
<path opacity="0.31" d="M271.135 512.788H294.75V515.646H271.135V512.788Z" fill="#E6E6E6"/>
<path opacity="0.22" d="M271.135 519.372H294.75V522.229H271.135V519.372Z" fill="#E6E6E6"/>
<path opacity="0.43" d="M271.135 525.956H294.75V528.813H271.135V525.956Z" fill="#E6E6E6"/>
<path opacity="0.68" d="M271.135 532.54H294.75V535.397H271.135V532.54Z" fill="#E6E6E6"/>
<path opacity="0.38" d="M271.135 539.124H294.75V541.981H271.135V539.124Z" fill="#E6E6E6"/>
<path opacity="0.84" d="M271.135 545.707H294.75V548.564H271.135V545.707Z" fill="#E6E6E6"/>
<path d="M349.563 404.963V413.41H308.919V404.963H349.563ZM340.489 410.678H344.715V407.82H340.489V410.678ZM333.902 410.678H338.004V407.82H333.902V410.678ZM327.19 410.678H331.292V407.82H327.19V410.678ZM320.478 410.678H324.704V407.82H320.478V410.678ZM313.767 410.678H317.993V407.82H313.767V410.678Z" fill="#333333"/>
<path d="M301.462 407.821H302.581V410.678H301.462V407.821Z" fill="#333333"/>
<path d="M308.919 404.963V413.41H289.779V404.963H308.919ZM301.462 410.678H305.564V407.82H301.462V410.678ZM292.637 410.678H296.739V407.82H292.637V410.678Z" fill="#4D4D4D"/>
<path d="M292.762 407.821H293.88V410.678H292.762V407.821Z" fill="#333333"/>
<path d="M289.53 583.595H374.048L289.53 521.235V583.595Z" fill="#333333"/>
<path d="M415.561 379.622H422.397V405.585H415.561V379.622Z" fill="#4D4D4D"/>
<path d="M422.273 379.622H429.233V405.585H422.273V379.622Z" fill="#333333"/>
<path d="M408.477 379.622H415.437V405.585H408.477V379.622Z" fill="#666666"/>
<path d="M388.341 423.348H407.731V571.421H388.341V423.348Z" fill="#666666"/>
<path d="M430.476 423.348H447.38V571.421H430.476V423.348Z" fill="#333333"/>
<path d="M407.731 423.348H430.6V571.421H407.731V423.348Z" fill="#4D4D4D"/>
<path opacity="0.6" d="M442.532 427.696H445.018V569.434H442.532V427.696Z" fill="#E6E6E6"/>
<path opacity="0.6" d="M437.685 427.696H440.171V569.434H437.685V427.696Z" fill="#E6E6E6"/>
<path opacity="0.6" d="M432.838 427.696H435.323V569.434H432.838V427.696Z" fill="#E6E6E6"/>
<path d="M403.878 427.696H406.364V569.434H403.878V427.696Z" fill="#E6E6E6"/>
<path d="M399.03 427.696H401.516V569.434H399.03V427.696Z" fill="#E6E6E6"/>
<path d="M389.584 427.696H392.07V569.434H389.584V427.696Z" fill="#E6E6E6"/>
<path d="M394.183 427.696H396.669V569.434H394.183V427.696Z" fill="#E6E6E6"/>
<path opacity="0.8" d="M427.742 569.434H410.59V427.696H427.742V569.434ZM425.007 430.18H413.324V566.949H425.007V430.18Z" fill="#E6E6E6"/>
<path opacity="0.8" d="M422.77 564.589H415.437V432.417H422.77V564.589ZM420.284 435.522H419.414H418.917H417.923V561.483H418.917H419.414H420.284V435.522Z" fill="#E6E6E6"/>
<path opacity="0.8" d="M418.917 435.522H419.414V561.483H418.917V435.522Z" fill="#E6E6E6"/>
<path d="M410.341 397.386H427.493V423.348H410.341V397.386Z" fill="#4D4D4D"/>
<path d="M410.341 397.386H427.493V423.348H410.341V397.386Z" fill="#4D4D4D"/>
<path d="M393.189 397.386H410.341V423.348H393.189V397.386Z" fill="#666666"/>
<path d="M427.493 397.386H444.645V423.348H427.493V397.386Z" fill="#333333"/>
<path d="M408.601 379.622H429.233L422.397 384.342H415.437L408.601 379.622Z" fill="#808080"/>
<path d="M39.829 370.057H49.7723V399.249H39.829V370.057Z" fill="#4D4D4D"/>
<path d="M49.8966 370.057H59.8399V399.249H49.8966V370.057Z" fill="#333333"/>
<path d="M29.8856 370.057H39.829V399.249H29.8856V370.057Z" fill="#666666"/>
<path d="M0.552979 419.373H28.6428V586.203H0.552979V419.373Z" fill="#666666"/>
<path d="M61.7043 419.373H86.0653V586.203H61.7043V419.373Z" fill="#333333"/>
<path d="M28.6428 419.373H61.7043V586.203H28.6428V419.373Z" fill="#4D4D4D"/>
<path opacity="0.4" d="M79.105 424.342H82.7094V583.968H79.105V424.342Z" fill="#E6E6E6"/>
<path opacity="0.4" d="M72.0204 424.342H75.6249V583.968H72.0204V424.342Z" fill="#E6E6E6"/>
<path opacity="0.4" d="M64.9358 424.342H68.5403V583.968H64.9358V424.342Z" fill="#E6E6E6"/>
<path d="M23.0496 424.342H26.6541V583.968H23.0496V424.342Z" fill="#E6E6E6"/>
<path d="M15.9651 424.342H19.5695V583.968H15.9651V424.342Z" fill="#E6E6E6"/>
<path d="M2.41736 424.342H6.02179V583.968H2.41736V424.342Z" fill="#E6E6E6"/>
<path d="M9.00476 424.342H12.6093V583.968H9.00476V424.342Z" fill="#E6E6E6"/>
<path d="M57.4783 583.968H32.6201V424.342H57.4783V583.968ZM53.6253 427.075H36.7217V581.235H53.6253V427.075Z" fill="#E6E6E6"/>
<path d="M50.5181 578.626H39.829V429.684H50.5181V578.626ZM46.7893 433.162H45.4221H44.8006H43.4335V575.148H44.8006H45.4221H46.7893V433.162Z" fill="#E6E6E6"/>
<path d="M44.8006 433.162H45.4221V575.148H44.8006V433.162Z" fill="#E6E6E6"/>
<path d="M32.3715 390.181H57.2297V419.373H32.3715V390.181Z" fill="#4D4D4D"/>
<path d="M32.3715 390.181H57.2297V419.373H32.3715V390.181Z" fill="#4D4D4D"/>
<path d="M7.51324 390.181H32.3715V419.373H7.51324V390.181Z" fill="#666666"/>
<path d="M57.1055 390.181H81.9637V419.373H57.1055V390.181Z" fill="#333333"/>
<path d="M29.7614 370.057H59.8399L49.7723 375.398H39.829L29.7614 370.057Z" fill="#808080"/>
<path d="M111.545 442.479H179.532V465.087H111.545V442.479Z" fill="#E6E6E6"/>
<path d="M152.81 442.479H179.532V465.087H152.81V442.479Z" fill="#B3B3B3"/>
<path d="M152.81 465.211H205.633V575.024H152.81V465.211Z" fill="#333333"/>
<path d="M70.2803 465.211H152.81V575.024H70.2803V465.211Z" fill="#4D4D4D"/>
<path d="M159.273 454.031H199.916V465.211H159.273V454.031Z" fill="#333333"/>
<path d="M82.5851 454.031H140.629V465.211H82.5851V454.031Z" fill="#4D4D4D"/>
<path d="M129.567 433.907H152.81V442.479H129.567V433.907Z" fill="#E6E6E6"/>
<path d="M141.251 425.212H152.81V433.783H141.251V425.212Z" fill="#4D4D4D"/>
<path d="M152.934 425.212H164.493V433.783H152.934V425.212Z" fill="#333333"/>
<path d="M152.81 433.907H170.583V442.479H152.81V433.907Z" fill="#B3B3B3"/>
<path d="M153.555 425.212L152.81 405.336L152.188 425.212H153.555Z" fill="#333333"/>
<path opacity="0.12" d="M188.978 469.683H193.329V474.031H188.978V469.683Z" fill="white"/>
<path opacity="0.25" d="M183.012 469.683H187.363V474.031H183.012V469.683Z" fill="white"/>
<path opacity="0.36" d="M177.047 469.683H181.397V474.031H177.047V469.683Z" fill="white"/>
<path opacity="0.12" d="M171.081 469.683H175.431V474.031H171.081V469.683Z" fill="white"/>
<path opacity="0.14" d="M165.115 469.683H169.465V474.031H165.115V469.683Z" fill="white"/>
<path opacity="0.28" d="M188.978 475.398H193.329V479.745H188.978V475.398Z" fill="white"/>
<path opacity="0.4" d="M183.012 475.398H187.363V479.745H183.012V475.398Z" fill="white"/>
<path opacity="0.16" d="M177.047 475.398H181.397V479.745H177.047V475.398Z" fill="white"/>
<path opacity="0.17" d="M165.115 475.398H169.465V479.745H165.115V475.398Z" fill="white"/>
<path opacity="0.27" d="M188.978 481.112H193.329V485.46H188.978V481.112Z" fill="white"/>
<path opacity="0.45" d="M183.012 481.112H187.363V485.46H183.012V481.112Z" fill="white"/>
<path opacity="0.45" d="M177.047 481.112H181.397V485.46H177.047V481.112Z" fill="white"/>
<path opacity="0.48" d="M171.081 481.112H175.431V485.46H171.081V481.112Z" fill="white"/>
<path opacity="0.25" d="M165.115 481.112H169.465V485.46H165.115V481.112Z" fill="white"/>
<path opacity="0.28" d="M188.978 486.826H193.329V491.174H188.978V486.826Z" fill="white"/>
<path opacity="0.13" d="M183.012 486.826H187.363V491.174H183.012V486.826Z" fill="white"/>
<path opacity="0.07" d="M177.047 486.826H181.397V491.174H177.047V486.826Z" fill="white"/>
<path opacity="0.39" d="M171.081 486.826H175.431V491.174H171.081V486.826Z" fill="white"/>
<path opacity="0.47" d="M165.115 486.826H169.465V491.174H165.115V486.826Z" fill="white"/>
<path opacity="0.28" d="M188.978 492.54H193.329V496.888H188.978V492.54Z" fill="white"/>
<path opacity="0.2" d="M183.012 492.54H187.363V496.888H183.012V492.54Z" fill="white"/>
<path opacity="0.04" d="M177.047 492.54H181.397V496.888H177.047V492.54Z" fill="white"/>
<path opacity="0.43" d="M171.081 492.54H175.431V496.888H171.081V492.54Z" fill="white"/>
<path opacity="0.48" d="M165.115 492.54H169.465V496.888H165.115V492.54Z" fill="white"/>
<path opacity="0.28" d="M188.978 498.254H193.329V502.602H188.978V498.254Z" fill="white"/>
<path opacity="0.19" d="M183.012 498.254H187.363V502.602H183.012V498.254Z" fill="white"/>
<path opacity="0.01" d="M177.047 498.254H181.397V502.602H177.047V498.254Z" fill="white"/>
<path opacity="0.27" d="M171.081 498.254H175.431V502.602H171.081V498.254Z" fill="white"/>
<path opacity="0.24" d="M165.115 498.254H169.465V502.602H165.115V498.254Z" fill="white"/>
<path opacity="0.07" d="M188.978 504.093H193.329V508.441H188.978V504.093Z" fill="white"/>
<path opacity="0.25" d="M183.012 504.093H187.363V508.441H183.012V504.093Z" fill="white"/>
<path opacity="0.26" d="M177.047 504.093H181.397V508.441H177.047V504.093Z" fill="white"/>
<path opacity="0.39" d="M171.081 504.093H175.431V508.441H171.081V504.093Z" fill="white"/>
<path opacity="0.22" d="M165.115 504.093H169.465V508.441H165.115V504.093Z" fill="white"/>
<path opacity="0.15" d="M188.978 509.807H193.329V514.155H188.978V509.807Z" fill="white"/>
<path opacity="0.23" d="M183.012 509.807H187.363V514.155H183.012V509.807Z" fill="white"/>
<path opacity="0.05" d="M177.047 509.807H181.397V514.155H177.047V509.807Z" fill="white"/>
<path opacity="0.2" d="M171.081 509.807H175.431V514.155H171.081V509.807Z" fill="white"/>
<path opacity="0.31" d="M165.115 509.807H169.465V514.155H165.115V509.807Z" fill="white"/>
<path opacity="0.15" d="M188.978 515.521H193.329V519.869H188.978V515.521Z" fill="white"/>
<path opacity="0.33" d="M183.012 515.521H187.363V519.869H183.012V515.521Z" fill="white"/>
<path opacity="0.46" d="M177.047 515.521H181.397V519.869H177.047V515.521Z" fill="white"/>
<path opacity="0.25" d="M171.081 515.521H175.431V519.869H171.081V515.521Z" fill="white"/>
<path opacity="0.43" d="M165.115 515.521H169.465V519.869H165.115V515.521Z" fill="white"/>
<path opacity="0.4" d="M188.978 521.236H193.329V525.583H188.978V521.236Z" fill="white"/>
<path opacity="0.39" d="M183.012 521.236H187.363V525.583H183.012V521.236Z" fill="white"/>
<path opacity="0.01" d="M177.047 521.236H181.397V525.583H177.047V521.236Z" fill="white"/>
<path opacity="0.12" d="M171.081 521.236H175.431V525.583H171.081V521.236Z" fill="white"/>
<path opacity="0.07" d="M165.115 521.236H169.465V525.583H165.115V521.236Z" fill="white"/>
<path opacity="0.07" d="M188.978 526.95H193.329V531.298H188.978V526.95Z" fill="white"/>
<path opacity="0.02" d="M183.012 526.95H187.363V531.298H183.012V526.95Z" fill="white"/>
<path opacity="0.12" d="M177.047 526.95H181.397V531.298H177.047V526.95Z" fill="white"/>
<path opacity="0.23" d="M171.081 526.95H175.431V531.298H171.081V526.95Z" fill="white"/>
<path opacity="0.26" d="M165.115 526.95H169.465V531.298H165.115V526.95Z" fill="white"/>
<path opacity="0.27" d="M188.978 532.664H193.329V537.012H188.978V532.664Z" fill="white"/>
<path opacity="0.38" d="M183.012 532.664H187.363V537.012H183.012V532.664Z" fill="white"/>
<path opacity="0.05" d="M177.047 532.664H181.397V537.012H177.047V532.664Z" fill="white"/>
<path opacity="0.45" d="M171.081 532.664H175.431V537.012H171.081V532.664Z" fill="white"/>
<path opacity="0.15" d="M165.115 532.664H169.465V537.012H165.115V532.664Z" fill="white"/>
<path opacity="0.06" d="M188.978 538.378H193.329V542.726H188.978V538.378Z" fill="white"/>
<path opacity="0.47" d="M183.012 538.378H187.363V542.726H183.012V538.378Z" fill="white"/>
<path opacity="0.15" d="M177.047 538.378H181.397V542.726H177.047V538.378Z" fill="white"/>
<path opacity="0.44" d="M171.081 538.378H175.431V542.726H171.081V538.378Z" fill="white"/>
<path opacity="0.14" d="M165.115 538.378H169.465V542.726H165.115V538.378Z" fill="white"/>
<path opacity="0.15" d="M188.978 544.093H193.329V548.44H188.978V544.093Z" fill="white"/>
<path opacity="0.43" d="M183.012 544.093H187.363V548.44H183.012V544.093Z" fill="white"/>
<path opacity="0.07" d="M177.047 544.093H181.397V548.44H177.047V544.093Z" fill="white"/>
<path opacity="0.47" d="M171.081 544.093H175.431V548.44H171.081V544.093Z" fill="white"/>
<path opacity="0.11" d="M165.115 544.093H169.465V548.44H165.115V544.093Z" fill="white"/>
<path opacity="0.07" d="M188.978 549.807H193.329V554.154H188.978V549.807Z" fill="white"/>
<path opacity="0.34" d="M183.012 549.807H187.363V554.154H183.012V549.807Z" fill="white"/>
<path opacity="0.5" d="M177.047 549.807H181.397V554.154H177.047V549.807Z" fill="white"/>
<path opacity="0.36" d="M171.081 549.807H175.431V554.154H171.081V549.807Z" fill="white"/>
<path opacity="0.34" d="M165.115 549.807H169.465V554.154H165.115V549.807Z" fill="white"/>
<path opacity="0.47" d="M188.978 555.521H193.329V559.869H188.978V555.521Z" fill="white"/>
<path opacity="0.41" d="M183.012 555.521H187.363V559.869H183.012V555.521Z" fill="white"/>
<path opacity="0.3" d="M177.047 555.521H181.397V559.869H177.047V555.521Z" fill="white"/>
<path opacity="0.33" d="M171.081 555.521H175.431V559.869H171.081V555.521Z" fill="white"/>
<path opacity="0.12" d="M165.115 555.521H169.465V559.869H165.115V555.521Z" fill="white"/>
<path opacity="0.3" d="M138.392 469.683H142.742V474.031H138.392V469.683Z" fill="white"/>
<path opacity="0.72" d="M132.674 469.683H137.025V474.031H132.674V469.683Z" fill="white"/>
<path opacity="0.7" d="M126.833 469.683H131.183V474.031H126.833V469.683Z" fill="white"/>
<path opacity="0.52" d="M120.991 469.683H125.341V474.031H120.991V469.683Z" fill="white"/>
<path opacity="0.2" d="M115.149 469.683H119.5V474.031H115.149V469.683Z" fill="white"/>
<path opacity="0.32" d="M109.432 469.683H113.782V474.031H109.432V469.683Z" fill="white"/>
<path opacity="0.13" d="M103.59 469.683H107.941V474.031H103.59V469.683Z" fill="white"/>
<path opacity="0.38" d="M97.7487 469.683H102.099V474.031H97.7487V469.683Z" fill="white"/>
<path opacity="0.61" d="M92.0312 469.683H96.3815V474.031H92.0312V469.683Z" fill="white"/>
<path d="M86.1896 469.683H90.5399V474.031H86.1896V469.683Z" fill="white"/>
<path opacity="0.91" d="M80.348 469.683H84.6981V474.031H80.348V469.683Z" fill="white"/>
<path opacity="0.66" d="M138.392 475.398H142.742V479.745H138.392V475.398Z" fill="white"/>
<path opacity="0.31" d="M132.674 475.398H137.025V479.745H132.674V475.398Z" fill="white"/>
<path opacity="0.95" d="M126.833 475.398H131.183V479.745H126.833V475.398Z" fill="white"/>
<path opacity="0.7" d="M120.991 475.398H125.341V479.745H120.991V475.398Z" fill="white"/>
<path opacity="0.12" d="M115.149 475.398H119.5V479.745H115.149V475.398Z" fill="white"/>
<path opacity="0.24" d="M109.432 475.398H113.782V479.745H109.432V475.398Z" fill="white"/>
<path opacity="0.66" d="M103.59 475.398H107.941V479.745H103.59V475.398Z" fill="white"/>
<path opacity="0.71" d="M97.7487 475.398H102.099V479.745H97.7487V475.398Z" fill="white"/>
<path opacity="0.42" d="M92.0312 475.398H96.3815V479.745H92.0312V475.398Z" fill="white"/>
<path opacity="0.09" d="M86.1896 475.398H90.5399V479.745H86.1896V475.398Z" fill="white"/>
<path opacity="0.32" d="M80.348 475.398H84.6981V479.745H80.348V475.398Z" fill="white"/>
<path opacity="0.65" d="M138.392 481.112H142.742V485.46H138.392V481.112Z" fill="white"/>
<path d="M132.674 481.112H137.025V485.46H132.674V481.112Z" fill="white"/>
<path d="M126.833 481.112H131.183V485.46H126.833V481.112Z" fill="white"/>
<path opacity="0.71" d="M120.991 481.112H125.341V485.46H120.991V481.112Z" fill="white"/>
<path opacity="0.2" d="M115.149 481.112H119.5V485.46H115.149V481.112Z" fill="white"/>
<path opacity="0.19" d="M109.432 481.112H113.782V485.46H109.432V481.112Z" fill="white"/>
<path opacity="0.62" d="M103.59 481.112H107.941V485.46H103.59V481.112Z" fill="white"/>
<path opacity="0.93" d="M97.7487 481.112H102.099V485.46H97.7487V481.112Z" fill="white"/>
<path opacity="0.56" d="M92.0312 481.112H96.3815V485.46H92.0312V481.112Z" fill="white"/>
<path opacity="0.57" d="M86.1896 481.112H90.5399V485.46H86.1896V481.112Z" fill="white"/>
<path opacity="0.52" d="M80.348 481.112H84.6981V485.46H80.348V481.112Z" fill="white"/>
<path opacity="0.74" d="M138.392 486.826H142.742V491.174H138.392V486.826Z" fill="white"/>
<path opacity="0.56" d="M132.674 486.826H137.025V491.174H132.674V486.826Z" fill="white"/>
<path opacity="0.78" d="M126.833 486.826H131.183V491.174H126.833V486.826Z" fill="white"/>
<path opacity="0.41" d="M120.991 486.826H125.341V491.174H120.991V486.826Z" fill="white"/>
<path opacity="0.14" d="M115.149 486.826H119.5V491.174H115.149V486.826Z" fill="white"/>
<path opacity="0.28" d="M109.432 486.826H113.782V491.174H109.432V486.826Z" fill="white"/>
<path opacity="0.36" d="M103.59 486.826H107.941V491.174H103.59V486.826Z" fill="white"/>
<path opacity="0.14" d="M97.7487 486.826H102.099V491.174H97.7487V486.826Z" fill="white"/>
<path opacity="0.5" d="M92.0312 486.826H96.3815V491.174H92.0312V486.826Z" fill="white"/>
<path opacity="0.98" d="M86.1896 486.826H90.5399V491.174H86.1896V486.826Z" fill="white"/>
<path opacity="0.59" d="M80.348 486.826H84.6981V491.174H80.348V486.826Z" fill="white"/>
<path opacity="0.07" d="M138.392 492.54H142.742V496.888H138.392V492.54Z" fill="white"/>
<path opacity="0.1" d="M132.674 492.54H137.025V496.888H132.674V492.54Z" fill="white"/>
<path opacity="0.88" d="M126.833 492.54H131.183V496.888H126.833V492.54Z" fill="white"/>
<path opacity="0.68" d="M120.991 492.54H125.341V496.888H120.991V492.54Z" fill="white"/>
<path opacity="0.81" d="M115.149 492.54H119.5V496.888H115.149V492.54Z" fill="white"/>
<path opacity="0.62" d="M109.432 492.54H113.782V496.888H109.432V492.54Z" fill="white"/>
<path opacity="0.97" d="M103.59 492.54H107.941V496.888H103.59V492.54Z" fill="white"/>
<path opacity="0.81" d="M97.7487 492.54H102.099V496.888H97.7487V492.54Z" fill="white"/>
<path opacity="0.79" d="M92.0312 492.54H96.3815V496.888H92.0312V492.54Z" fill="white"/>
<path opacity="0.03" d="M86.1896 492.54H90.5399V496.888H86.1896V492.54Z" fill="white"/>
<path opacity="0.95" d="M80.348 492.54H84.6981V496.888H80.348V492.54Z" fill="white"/>
<path opacity="0.62" d="M138.392 498.254H142.742V502.602H138.392V498.254Z" fill="white"/>
<path opacity="0.22" d="M132.674 498.254H137.025V502.602H132.674V498.254Z" fill="white"/>
<path opacity="0.42" d="M126.833 498.254H131.183V502.602H126.833V498.254Z" fill="white"/>
<path opacity="0.56" d="M120.991 498.254H125.341V502.602H120.991V498.254Z" fill="white"/>
<path opacity="0.03" d="M115.149 498.254H119.5V502.602H115.149V498.254Z" fill="white"/>
<path opacity="0.64" d="M109.432 498.254H113.782V502.602H109.432V498.254Z" fill="white"/>
<path opacity="0.82" d="M103.59 498.254H107.941V502.602H103.59V498.254Z" fill="white"/>
<path opacity="0.52" d="M97.7487 498.254H102.099V502.602H97.7487V498.254Z" fill="white"/>
<path opacity="0.46" d="M92.0312 498.254H96.3815V502.602H92.0312V498.254Z" fill="white"/>
<path opacity="0.27" d="M86.1896 498.254H90.5399V502.602H86.1896V498.254Z" fill="white"/>
<path opacity="0.46" d="M80.348 498.254H84.6981V502.602H80.348V498.254Z" fill="white"/>
<path opacity="0.66" d="M138.392 504.093H142.742V508.441H138.392V504.093Z" fill="white"/>
<path opacity="0.7" d="M132.674 504.093H137.025V508.441H132.674V504.093Z" fill="white"/>
<path opacity="0.94" d="M126.833 504.093H131.183V508.441H126.833V504.093Z" fill="white"/>
<path opacity="0.5" d="M120.991 504.093H125.341V508.441H120.991V504.093Z" fill="white"/>
<path opacity="0.12" d="M115.149 504.093H119.5V508.441H115.149V504.093Z" fill="white"/>
<path opacity="0.36" d="M109.432 504.093H113.782V508.441H109.432V504.093Z" fill="white"/>
<path opacity="0.51" d="M103.59 504.093H107.941V508.441H103.59V504.093Z" fill="white"/>
<path opacity="0.37" d="M97.7487 504.093H102.099V508.441H97.7487V504.093Z" fill="white"/>
<path opacity="0.66" d="M92.0312 504.093H96.3815V508.441H92.0312V504.093Z" fill="white"/>
<path opacity="0.42" d="M86.1896 504.093H90.5399V508.441H86.1896V504.093Z" fill="white"/>
<path opacity="0.5" d="M80.348 504.093H84.6981V508.441H80.348V504.093Z" fill="white"/>
<path opacity="0.52" d="M138.392 509.807H142.742V514.155H138.392V509.807Z" fill="white"/>
<path opacity="0.61" d="M132.674 509.807H137.025V514.155H132.674V509.807Z" fill="white"/>
<path opacity="0.84" d="M126.833 509.807H131.183V514.155H126.833V509.807Z" fill="white"/>
<path opacity="0.89" d="M120.991 509.807H125.341V514.155H120.991V509.807Z" fill="white"/>
<path opacity="0.33" d="M115.149 509.807H119.5V514.155H115.149V509.807Z" fill="white"/>
<path opacity="0.25" d="M109.432 509.807H113.782V514.155H109.432V509.807Z" fill="white"/>
<path opacity="0.95" d="M103.59 509.807H107.941V514.155H103.59V509.807Z" fill="white"/>
<path opacity="0.09" d="M97.7487 509.807H102.099V514.155H97.7487V509.807Z" fill="white"/>
<path opacity="0.44" d="M92.0312 509.807H96.3815V514.155H92.0312V509.807Z" fill="white"/>
<path opacity="0.51" d="M86.1896 509.807H90.5399V514.155H86.1896V509.807Z" fill="white"/>
<path opacity="0.97" d="M80.348 509.807H84.6981V514.155H80.348V509.807Z" fill="white"/>
<path opacity="0.26" d="M138.392 515.521H142.742V519.869H138.392V515.521Z" fill="white"/>
<path opacity="0.92" d="M132.674 515.521H137.025V519.869H132.674V515.521Z" fill="white"/>
<path opacity="0.33" d="M126.833 515.521H131.183V519.869H126.833V515.521Z" fill="white"/>
<path opacity="0.23" d="M120.991 515.521H125.341V519.869H120.991V515.521Z" fill="white"/>
<path opacity="0.42" d="M115.149 515.521H119.5V519.869H115.149V515.521Z" fill="white"/>
<path opacity="0.57" d="M109.432 515.521H113.782V519.869H109.432V515.521Z" fill="white"/>
<path opacity="0.73" d="M103.59 515.521H107.941V519.869H103.59V515.521Z" fill="white"/>
<path opacity="0.87" d="M97.7487 515.521H102.099V519.869H97.7487V515.521Z" fill="white"/>
<path opacity="0.22" d="M92.0312 515.521H96.3815V519.869H92.0312V515.521Z" fill="white"/>
<path opacity="0.89" d="M86.1896 515.521H90.5399V519.869H86.1896V515.521Z" fill="white"/>
<path opacity="0.73" d="M80.348 515.521H84.6981V519.869H80.348V515.521Z" fill="white"/>
<path opacity="0.35" d="M138.392 521.236H142.742V525.583H138.392V521.236Z" fill="white"/>
<path opacity="0.81" d="M132.674 521.236H137.025V525.583H132.674V521.236Z" fill="white"/>
<path opacity="0.56" d="M126.833 521.236H131.183V525.583H126.833V521.236Z" fill="white"/>
<path opacity="0.81" d="M120.991 521.236H125.341V525.583H120.991V521.236Z" fill="white"/>
<path opacity="0.87" d="M115.149 521.236H119.5V525.583H115.149V521.236Z" fill="white"/>
<path opacity="0.39" d="M109.432 521.236H113.782V525.583H109.432V521.236Z" fill="white"/>
<path opacity="0.31" d="M103.59 521.236H107.941V525.583H103.59V521.236Z" fill="white"/>
<path opacity="0.98" d="M97.7487 521.236H102.099V525.583H97.7487V521.236Z" fill="white"/>
<path opacity="0.17" d="M92.0312 521.236H96.3815V525.583H92.0312V521.236Z" fill="white"/>
<path opacity="0.06" d="M86.1896 521.236H90.5399V525.583H86.1896V521.236Z" fill="white"/>
<path opacity="0.57" d="M80.348 521.236H84.6981V525.583H80.348V521.236Z" fill="white"/>
<path opacity="0.67" d="M138.392 526.95H142.742V531.298H138.392V526.95Z" fill="white"/>
<path opacity="0.83" d="M132.674 526.95H137.025V531.298H132.674V526.95Z" fill="white"/>
<path opacity="0.99" d="M126.833 526.95H131.183V531.298H126.833V526.95Z" fill="white"/>
<path opacity="0.62" d="M120.991 526.95H125.341V531.298H120.991V526.95Z" fill="white"/>
<path opacity="0.87" d="M115.149 526.95H119.5V531.298H115.149V526.95Z" fill="white"/>
<path opacity="0.14" d="M109.432 526.95H113.782V531.298H109.432V526.95Z" fill="white"/>
<path opacity="0.12" d="M103.59 526.95H107.941V531.298H103.59V526.95Z" fill="white"/>
<path opacity="0.11" d="M97.7487 526.95H102.099V531.298H97.7487V526.95Z" fill="white"/>
<path opacity="0.39" d="M92.0312 526.95H96.3815V531.298H92.0312V526.95Z" fill="white"/>
<path opacity="0.58" d="M86.1896 526.95H90.5399V531.298H86.1896V526.95Z" fill="white"/>
<path opacity="0.54" d="M80.348 526.95H84.6981V531.298H80.348V526.95Z" fill="white"/>
<path opacity="0.99" d="M138.392 532.664H142.742V537.012H138.392V532.664Z" fill="white"/>
<path opacity="0.28" d="M132.674 532.664H137.025V537.012H132.674V532.664Z" fill="white"/>
<path opacity="0.78" d="M126.833 532.664H131.183V537.012H126.833V532.664Z" fill="white"/>
<path opacity="0.65" d="M120.991 532.664H125.341V537.012H120.991V532.664Z" fill="white"/>
<path opacity="0.32" d="M115.149 532.664H119.5V537.012H115.149V532.664Z" fill="white"/>
<path opacity="0.55" d="M109.432 532.664H113.782V537.012H109.432V532.664Z" fill="white"/>
<path opacity="0.4" d="M103.59 532.664H107.941V537.012H103.59V532.664Z" fill="white"/>
<path opacity="0.22" d="M97.7487 532.664H102.099V537.012H97.7487V532.664Z" fill="white"/>
<path opacity="0.87" d="M92.0312 532.664H96.3815V537.012H92.0312V532.664Z" fill="white"/>
<path opacity="0.02" d="M86.1896 532.664H90.5399V537.012H86.1896V532.664Z" fill="white"/>
<path opacity="0.39" d="M80.348 532.664H84.6981V537.012H80.348V532.664Z" fill="white"/>
<path opacity="0.89" d="M138.392 538.378H142.742V542.726H138.392V538.378Z" fill="white"/>
<path opacity="0.97" d="M132.674 538.378H137.025V542.726H132.674V538.378Z" fill="white"/>
<path opacity="0.79" d="M126.833 538.378H131.183V542.726H126.833V538.378Z" fill="white"/>
<path opacity="0.41" d="M120.991 538.378H125.341V542.726H120.991V538.378Z" fill="white"/>
<path opacity="0.13" d="M115.149 538.378H119.5V542.726H115.149V538.378Z" fill="white"/>
<path opacity="0.9" d="M109.432 538.378H113.782V542.726H109.432V538.378Z" fill="white"/>
<path opacity="0.98" d="M103.59 538.378H107.941V542.726H103.59V538.378Z" fill="white"/>
<path opacity="0.67" d="M97.7487 538.378H102.099V542.726H97.7487V538.378Z" fill="white"/>
<path opacity="0.65" d="M92.0312 538.378H96.3815V542.726H92.0312V538.378Z" fill="white"/>
<path opacity="0.89" d="M86.1896 538.378H90.5399V542.726H86.1896V538.378Z" fill="white"/>
<path opacity="0.98" d="M80.348 538.378H84.6981V542.726H80.348V538.378Z" fill="white"/>
<path opacity="0.29" d="M138.392 544.093H142.742V548.44H138.392V544.093Z" fill="white"/>
<path opacity="0.74" d="M132.674 544.093H137.025V548.44H132.674V544.093Z" fill="white"/>
<path opacity="0.64" d="M126.833 544.093H131.183V548.44H126.833V544.093Z" fill="white"/>
<path opacity="0.65" d="M120.991 544.093H125.341V548.44H120.991V544.093Z" fill="white"/>
<path opacity="0.07" d="M115.149 544.093H119.5V548.44H115.149V544.093Z" fill="white"/>
<path opacity="0.16" d="M109.432 544.093H113.782V548.44H109.432V544.093Z" fill="white"/>
<path opacity="0.84" d="M103.59 544.093H107.941V548.44H103.59V544.093Z" fill="white"/>
<path opacity="0.88" d="M97.7487 544.093H102.099V548.44H97.7487V544.093Z" fill="white"/>
<path opacity="0.57" d="M92.0312 544.093H96.3815V548.44H92.0312V544.093Z" fill="white"/>
<path opacity="0.31" d="M86.1896 544.093H90.5399V548.44H86.1896V544.093Z" fill="white"/>
<path opacity="0.03" d="M80.348 544.093H84.6981V548.44H80.348V544.093Z" fill="white"/>
<path opacity="0.3" d="M138.392 549.807H142.742V554.154H138.392V549.807Z" fill="white"/>
<path opacity="0.59" d="M132.674 549.807H137.025V554.154H132.674V549.807Z" fill="white"/>
<path opacity="0.93" d="M126.833 549.807H131.183V554.154H126.833V549.807Z" fill="white"/>
<path opacity="0.06" d="M120.991 549.807H125.341V554.154H120.991V549.807Z" fill="white"/>
<path opacity="0.74" d="M115.149 549.807H119.5V554.154H115.149V549.807Z" fill="white"/>
<path opacity="0.22" d="M109.432 549.807H113.782V554.154H109.432V549.807Z" fill="white"/>
<path opacity="0.51" d="M103.59 549.807H107.941V554.154H103.59V549.807Z" fill="white"/>
<path opacity="0.7" d="M97.7487 549.807H102.099V554.154H97.7487V549.807Z" fill="white"/>
<path opacity="0.47" d="M92.0312 549.807H96.3815V554.154H92.0312V549.807Z" fill="white"/>
<path opacity="0.08" d="M86.1896 549.807H90.5399V554.154H86.1896V549.807Z" fill="white"/>
<path opacity="0.93" d="M80.348 549.807H84.6981V554.154H80.348V549.807Z" fill="white"/>
<path opacity="0.81" d="M138.392 555.521H142.742V559.869H138.392V555.521Z" fill="white"/>
<path opacity="0.9" d="M132.674 555.521H137.025V559.869H132.674V555.521Z" fill="white"/>
<path opacity="0.55" d="M126.833 555.521H131.183V559.869H126.833V555.521Z" fill="white"/>
<path opacity="0.14" d="M120.991 555.521H125.341V559.869H120.991V555.521Z" fill="white"/>
<path opacity="0.66" d="M115.149 555.521H119.5V559.869H115.149V555.521Z" fill="white"/>
<path opacity="0.92" d="M109.432 555.521H113.782V559.869H109.432V555.521Z" fill="white"/>
<path opacity="0.4" d="M103.59 555.521H107.941V559.869H103.59V555.521Z" fill="white"/>
<path opacity="0.6" d="M97.7487 555.521H102.099V559.869H97.7487V555.521Z" fill="white"/>
<path opacity="0.99" d="M92.0312 555.521H96.3815V559.869H92.0312V555.521Z" fill="white"/>
<path opacity="0.68" d="M86.1896 555.521H90.5399V559.869H86.1896V555.521Z" fill="white"/>
<path opacity="0.01" d="M80.348 555.521H84.6981V559.869H80.348V555.521Z" fill="white"/>
<path d="M211.848 441.733H252.864V570.179H211.848V441.733Z" fill="#333333"/>
<path d="M234.22 435.273H252.864V442.478H234.22V435.273Z" fill="#333333"/>
<path d="M242.051 431.05H252.864V435.274H242.051V431.05Z" fill="#333333"/>
<path opacity="0.25" d="M229.124 450.801H235.836V457.509H229.124V450.801Z" fill="white"/>
<path opacity="0.15" d="M229.124 467.323H235.836V474.031H229.124V467.323Z" fill="white"/>
<path opacity="0.19" d="M229.124 500.242H235.836V506.95H229.124V500.242Z" fill="white"/>
<path opacity="0.17" d="M229.124 516.639H235.836V523.347H229.124V516.639Z" fill="white"/>
<path opacity="0.22" d="M229.124 533.036H235.836V539.744H229.124V533.036Z" fill="white"/>
<path d="M229.124 549.558H235.836V556.266H229.124V549.558Z" fill="white"/>
<path d="M242.299 513.285H280.705V524.59H242.299V513.285Z" fill="#333333"/>
<path d="M223.159 513.285H242.299V524.59H223.159V513.285Z" fill="#4D4D4D"/>
<path d="M280.705 513.285L268.773 507.571L242.299 513.285H280.705Z" fill="#333333"/>
<path d="M268.773 507.571L242.299 513.285H223.159L268.773 507.571Z" fill="#4D4D4D"/>
<path d="M233.35 521.235H289.53V572.663H233.35V521.235Z" fill="#333333"/>
<path d="M214.707 521.235H233.35V572.663H214.707V521.235Z" fill="#4D4D4D"/>
<path opacity="0.81" d="M219.057 524.838H229.124V528.565H219.057V524.838Z" fill="white"/>
<path opacity="0.76" d="M219.057 531.67H229.124V535.397H219.057V531.67Z" fill="white"/>
<path opacity="0.32" d="M219.057 538.502H229.124V542.229H219.057V538.502Z" fill="white"/>
<path opacity="0.49" d="M219.057 545.459H229.124V549.185H219.057V545.459Z" fill="white"/>
<path opacity="0.1" d="M270.513 524.838H280.581V528.565H270.513V524.838Z" fill="white"/>
<path opacity="0.04" d="M256.469 524.838H266.536V528.565H256.469V524.838Z" fill="white"/>
<path opacity="0.07" d="M242.299 524.838H252.367V528.565H242.299V524.838Z" fill="white"/>
<path opacity="0.06" d="M270.513 531.67H280.581V535.397H270.513V531.67Z" fill="white"/>
<path opacity="0.44" d="M256.469 531.67H266.536V535.397H256.469V531.67Z" fill="white"/>
<path opacity="0.24" d="M242.299 531.67H252.367V535.397H242.299V531.67Z" fill="white"/>
<path opacity="0.55" d="M270.513 538.502H280.581V542.229H270.513V538.502Z" fill="white"/>
<path opacity="0.02" d="M256.469 538.502H266.536V542.229H256.469V538.502Z" fill="white"/>
<path opacity="0.14" d="M242.299 538.502H252.367V542.229H242.299V538.502Z" fill="white"/>
<path opacity="0.43" d="M270.513 545.459H280.581V549.185H270.513V545.459Z" fill="white"/>
<path opacity="0.41" d="M256.469 545.459H266.536V549.185H256.469V545.459Z" fill="white"/>
<path opacity="0.46" d="M242.299 545.459H252.367V549.185H242.299V545.459Z" fill="white"/>
<path opacity="0.45" d="M270.513 552.291H280.581V556.018H270.513V552.291Z" fill="white"/>
<path opacity="0.33" d="M256.469 552.291H266.536V556.018H256.469V552.291Z" fill="white"/>
<path opacity="0.05" d="M242.299 552.291H252.367V556.018H242.299V552.291Z" fill="white"/>
<path d="M506.667 469.807H541.468V577.011H506.667V469.807Z" fill="#333333"/>
<path d="M467.018 469.807H506.542V577.011H467.018V469.807Z" fill="#4D4D4D"/>
<path d="M506.667 478.876H541.468V480.739H506.667V478.876Z" fill="#4D4D4D"/>
<path d="M467.018 478.876H506.542V480.739H467.018V478.876Z" fill="#333333"/>
<path opacity="0.47" d="M534.881 482.851H538.609V486.577H534.881V482.851Z" fill="white"/>
<path opacity="0.26" d="M529.785 482.851H533.514V486.577H529.785V482.851Z" fill="white"/>
<path opacity="0.32" d="M524.689 482.851H528.418V486.577H524.689V482.851Z" fill="white"/>
<path opacity="0.25" d="M519.593 482.851H523.322V486.577H519.593V482.851Z" fill="white"/>
<path opacity="0.12" d="M509.401 482.851H513.13V486.577H509.401V482.851Z" fill="white"/>
<path opacity="0.32" d="M534.881 487.944H538.609V491.671H534.881V487.944Z" fill="white"/>
<path opacity="0.22" d="M524.689 487.944H528.418V491.671H524.689V487.944Z" fill="white"/>
<path opacity="0.47" d="M519.593 487.944H523.322V491.671H519.593V487.944Z" fill="white"/>
<path opacity="0.22" d="M514.497 487.944H518.226V491.671H514.497V487.944Z" fill="white"/>
<path opacity="0.32" d="M509.401 487.944H513.13V491.671H509.401V487.944Z" fill="white"/>
<path opacity="0.37" d="M534.881 493.037H538.609V496.764H534.881V493.037Z" fill="white"/>
<path opacity="0.34" d="M529.785 493.037H533.514V496.764H529.785V493.037Z" fill="white"/>
<path opacity="0.18" d="M524.689 493.037H528.418V496.764H524.689V493.037Z" fill="white"/>
<path opacity="0.28" d="M519.593 493.037H523.322V496.764H519.593V493.037Z" fill="white"/>
<path opacity="0.2" d="M509.401 493.037H513.13V496.764H509.401V493.037Z" fill="white"/>
<path opacity="0.18" d="M534.881 498.13H538.609V501.857H534.881V498.13Z" fill="white"/>
<path opacity="0.33" d="M524.689 498.13H528.418V501.857H524.689V498.13Z" fill="white"/>
<path opacity="0.05" d="M519.593 498.13H523.322V501.857H519.593V498.13Z" fill="white"/>
<path opacity="0.08" d="M514.497 498.13H518.226V501.857H514.497V498.13Z" fill="white"/>
<path opacity="0.08" d="M519.593 503.223H523.322V506.95H519.593V503.223Z" fill="white"/>
<path opacity="0.02" d="M514.497 503.223H518.226V506.95H514.497V503.223Z" fill="white"/>
<path opacity="0.03" d="M534.881 508.316H538.609V512.043H534.881V508.316Z" fill="white"/>
<path opacity="0.46" d="M529.785 508.316H533.514V512.043H529.785V508.316Z" fill="white"/>
<path opacity="0.05" d="M524.689 508.316H528.418V512.043H524.689V508.316Z" fill="white"/>
<path opacity="0.2" d="M519.593 508.316H523.322V512.043H519.593V508.316Z" fill="white"/>
<path opacity="0.23" d="M514.497 508.316H518.226V512.043H514.497V508.316Z" fill="white"/>
<path opacity="0.17" d="M534.881 513.409H538.609V517.136H534.881V513.409Z" fill="white"/>
<path opacity="0.08" d="M529.785 513.409H533.514V517.136H529.785V513.409Z" fill="white"/>
<path opacity="0.14" d="M524.689 513.409H528.418V517.136H524.689V513.409Z" fill="white"/>
<path opacity="0.24" d="M514.497 513.409H518.226V517.136H514.497V513.409Z" fill="white"/>
<path opacity="0.28" d="M534.881 518.502H538.609V522.229H534.881V518.502Z" fill="white"/>
<path opacity="0.3" d="M529.785 518.502H533.514V522.229H529.785V518.502Z" fill="white"/>
<path opacity="0.23" d="M524.689 518.502H528.418V522.229H524.689V518.502Z" fill="white"/>
<path opacity="0.02" d="M519.593 518.502H523.322V522.229H519.593V518.502Z" fill="white"/>
<path opacity="0.04" d="M514.497 518.502H518.226V522.229H514.497V518.502Z" fill="white"/>
<path opacity="0.3" d="M509.401 518.502H513.13V522.229H509.401V518.502Z" fill="white"/>
<path opacity="0.08" d="M529.785 523.471H533.514V527.198H529.785V523.471Z" fill="white"/>
<path opacity="0.4" d="M509.401 523.471H513.13V527.198H509.401V523.471Z" fill="white"/>
<path opacity="0.31" d="M534.881 528.564H538.609V532.291H534.881V528.564Z" fill="white"/>
<path opacity="0.31" d="M529.785 528.564H533.514V532.291H529.785V528.564Z" fill="white"/>
<path opacity="0.12" d="M524.689 528.564H528.418V532.291H524.689V528.564Z" fill="white"/>
<path opacity="0.19" d="M514.497 528.564H518.226V532.291H514.497V528.564Z" fill="white"/>
<path opacity="0.43" d="M509.401 528.564H513.13V532.291H509.401V528.564Z" fill="white"/>
<path opacity="0.12" d="M534.881 533.658H538.609V537.385H534.881V533.658Z" fill="white"/>
<path opacity="0.42" d="M519.593 533.658H523.322V537.385H519.593V533.658Z" fill="white"/>
<path opacity="0.31" d="M509.401 533.658H513.13V537.385H509.401V533.658Z" fill="white"/>
<path opacity="0.23" d="M534.881 538.751H538.609V542.477H534.881V538.751Z" fill="white"/>
<path opacity="0.31" d="M519.593 538.751H523.322V542.477H519.593V538.751Z" fill="white"/>
<path opacity="0.33" d="M509.401 538.751H513.13V542.477H509.401V538.751Z" fill="white"/>
<path opacity="0.49" d="M534.881 543.844H538.609V547.571H534.881V543.844Z" fill="white"/>
<path opacity="0.06" d="M529.785 543.844H533.514V547.571H529.785V543.844Z" fill="white"/>
<path opacity="0.17" d="M519.593 543.844H523.322V547.571H519.593V543.844Z" fill="white"/>
<path opacity="0.01" d="M514.497 543.844H518.226V547.571H514.497V543.844Z" fill="white"/>
<path opacity="0.48" d="M509.401 543.844H513.13V547.571H509.401V543.844Z" fill="white"/>
<path opacity="0.05" d="M534.881 548.937H538.609V552.664H534.881V548.937Z" fill="white"/>
<path opacity="0.23" d="M529.785 548.937H533.514V552.664H529.785V548.937Z" fill="white"/>
<path opacity="0.28" d="M524.689 548.937H528.418V552.664H524.689V548.937Z" fill="white"/>
<path opacity="0.02" d="M519.593 548.937H523.322V552.664H519.593V548.937Z" fill="white"/>
<path opacity="0.17" d="M514.497 548.937H518.226V552.664H514.497V548.937Z" fill="white"/>
<path opacity="0.42" d="M509.401 548.937H513.13V552.664H509.401V548.937Z" fill="white"/>
<path opacity="0.13" d="M534.881 554.03H538.609V557.757H534.881V554.03Z" fill="white"/>
<path opacity="0.11" d="M524.689 554.03H528.418V557.757H524.689V554.03Z" fill="white"/>
<path opacity="0.02" d="M519.593 554.03H523.322V557.757H519.593V554.03Z" fill="white"/>
<path opacity="0.3" d="M509.401 554.03H513.13V557.757H509.401V554.03Z" fill="white"/>
<path opacity="0.08" d="M514.497 482.851H518.226V486.577H514.497V482.851Z" fill="white"/>
<path opacity="0.1" d="M529.785 487.944H533.514V491.671H529.785V487.944Z" fill="white"/>
<path opacity="0.08" d="M514.497 493.037H518.226V496.764H514.497V493.037Z" fill="white"/>
<path opacity="0.1" d="M529.785 498.13H533.514V501.857H529.785V498.13Z" fill="white"/>
<path opacity="0.01" d="M509.401 498.13H513.13V501.857H509.401V498.13Z" fill="white"/>
<path opacity="0.17" d="M534.881 503.223H538.609V506.95H534.881V503.223Z" fill="white"/>
<path opacity="0.01" d="M529.785 503.223H533.514V506.95H529.785V503.223Z" fill="white"/>
<path opacity="0.15" d="M524.689 503.223H528.418V506.95H524.689V503.223Z" fill="white"/>
<path opacity="0.12" d="M509.401 503.223H513.13V506.95H509.401V503.223Z" fill="white"/>
<path opacity="0.13" d="M519.593 513.409H523.322V517.136H519.593V513.409Z" fill="white"/>
<path opacity="0.07" d="M509.401 513.409H513.13V517.136H509.401V513.409Z" fill="white"/>
<path opacity="0.13" d="M534.881 523.471H538.609V527.198H534.881V523.471Z" fill="white"/>
<path opacity="0.02" d="M524.689 523.471H528.418V527.198H524.689V523.471Z" fill="white"/>
<path opacity="0.02" d="M519.593 523.471H523.322V527.198H519.593V523.471Z" fill="white"/>
<path opacity="0.14" d="M514.497 523.471H518.226V527.198H514.497V523.471Z" fill="white"/>
<path opacity="0.09" d="M524.689 533.658H528.418V537.385H524.689V533.658Z" fill="white"/>
<path opacity="0.02" d="M514.497 533.658H518.226V537.385H514.497V533.658Z" fill="white"/>
<path opacity="0.19" d="M524.689 538.751H528.418V542.477H524.689V538.751Z" fill="white"/>
<path opacity="0.06" d="M514.497 538.751H518.226V542.477H514.497V538.751Z" fill="white"/>
<path opacity="0.16" d="M524.689 543.844H528.418V547.571H524.689V543.844Z" fill="white"/>
<path opacity="0.19" d="M529.785 554.03H533.514V557.757H529.785V554.03Z" fill="white"/>
<path opacity="0.04" d="M514.497 554.03H518.226V557.757H514.497V554.03Z" fill="white"/>
<g opacity="0.7">
<path opacity="0.7" d="M499.085 480.739H502.938V572.291H499.085V480.739Z" fill="#E6E6E6"/>
<path opacity="0.7" d="M492.497 480.739H496.351V572.291H492.497V480.739Z" fill="#E6E6E6"/>
<path opacity="0.7" d="M485.786 480.739H489.639V572.291H485.786V480.739Z" fill="#E6E6E6"/>
<path opacity="0.7" d="M479.074 480.739H482.927V572.291H479.074V480.739Z" fill="#E6E6E6"/>
<path opacity="0.7" d="M472.362 480.739H476.215V572.291H472.362V480.739Z" fill="#E6E6E6"/>
</g>
<path d="M584.224 417.261L591.93 396.889L571.298 417.261H584.224Z" fill="#4D4D4D"/>
<path d="M602.247 417.261L591.93 396.889L584.224 417.261H602.247Z" fill="#333333"/>
<path d="M584.224 417.261H602.247V439H584.224V417.261Z" fill="#333333"/>
<path d="M571.298 417.261H584.224V439H571.298V417.261Z" fill="#4D4D4D"/>
<path d="M565.954 515.024H620.517V577.508H565.954V515.024Z" fill="#333333"/>
<path d="M573.411 470.304H612.936V515.024H573.411V470.304Z" fill="#333333"/>
<path d="M579.128 425.584H607.218V470.304H579.128V425.584Z" fill="#333333"/>
<path d="M559.863 425.584H579.253V470.304H559.863V425.584Z" fill="#4D4D4D"/>
<path d="M532.395 515.024H565.954V577.508H532.395V515.024Z" fill="#4D4D4D"/>
<path d="M547.931 470.304H573.411V515.024H547.931V470.304Z" fill="#4D4D4D"/>
<path opacity="0.53" d="M566.575 428.814H572.417V434.652H566.575V428.814Z" fill="white"/>
<path opacity="0.34" d="M566.575 436.143H572.417V441.981H566.575V436.143Z" fill="white"/>
<path opacity="0.9" d="M566.575 443.348H572.417V449.186H566.575V443.348Z" fill="white"/>
<path opacity="0.14" d="M566.575 450.553H572.417V456.391H566.575V450.553Z" fill="white"/>
<path d="M566.575 457.882H572.417V463.72H566.575V457.882Z" fill="white"/>
<path opacity="0.29" d="M562.225 474.155H568.067V479.993H562.225V474.155Z" fill="white"/>
<path opacity="0.81" d="M553.276 474.155H559.118V479.993H553.276V474.155Z" fill="white"/>
<path opacity="0.18" d="M562.225 481.484H568.067V487.323H562.225V481.484Z" fill="white"/>
<path opacity="0.41" d="M553.276 481.484H559.118V487.323H553.276V481.484Z" fill="white"/>
<path opacity="0.03" d="M553.276 488.938H559.118V494.776H553.276V488.938Z" fill="white"/>
<path opacity="0.85" d="M562.225 496.391H568.067V502.229H562.225V496.391Z" fill="white"/>
<path opacity="0.06" d="M553.276 496.391H559.118V502.229H553.276V496.391Z" fill="white"/>
<path opacity="0.94" d="M562.225 503.72H568.067V509.558H562.225V503.72Z" fill="white"/>
<path opacity="0.25" d="M553.276 503.72H559.118V509.558H553.276V503.72Z" fill="white"/>
<path opacity="0.6" d="M554.022 518.875H559.863V524.713H554.022V518.875Z" fill="white"/>
<path opacity="0.83" d="M546.191 518.875H552.033V524.713H546.191V518.875Z" fill="white"/>
<path opacity="0.74" d="M538.361 518.875H544.203V524.713H538.361V518.875Z" fill="white"/>
<path opacity="0.35" d="M546.191 525.956H552.033V531.794H546.191V525.956Z" fill="white"/>
<path opacity="0.54" d="M538.361 525.956H544.203V531.794H538.361V525.956Z" fill="white"/>
<path opacity="0.2" d="M554.022 533.036H559.863V538.875H554.022V533.036Z" fill="white"/>
<path opacity="0.04" d="M546.191 533.036H552.033V538.875H546.191V533.036Z" fill="white"/>
<path opacity="0.86" d="M538.361 533.036H544.203V538.875H538.361V533.036Z" fill="white"/>
<path opacity="0.06" d="M554.022 540.117H559.863V545.956H554.022V540.117Z" fill="white"/>
<path opacity="0.01" d="M546.191 540.117H552.033V545.956H546.191V540.117Z" fill="white"/>
<path opacity="0.39" d="M538.361 540.117H544.203V545.956H538.361V540.117Z" fill="white"/>
<path opacity="0.1" d="M554.022 547.322H559.863V553.16H554.022V547.322Z" fill="white"/>
<path d="M546.191 547.322H552.033V553.16H546.191V547.322Z" fill="white"/>
<path opacity="0.62" d="M538.361 547.322H544.203V553.16H538.361V547.322Z" fill="white"/>
<path opacity="0.48" d="M554.022 554.651H559.863V560.49H554.022V554.651Z" fill="white"/>
<path opacity="0.27" d="M546.191 554.651H552.033V560.49H546.191V554.651Z" fill="white"/>
<path opacity="0.42" d="M538.361 554.651H544.203V560.49H538.361V554.651Z" fill="white"/>
<path opacity="0.27" d="M608.834 518.875H614.676V524.713H608.834V518.875Z" fill="white"/>
<path opacity="0.11" d="M602.247 474.155H608.088V479.993H602.247V474.155Z" fill="white"/>
<path opacity="0.41" d="M597.648 428.814H603.49V434.652H597.648V428.814Z" fill="white"/>
<path opacity="0.38" d="M590.315 428.814H596.156V434.652H590.315V428.814Z" fill="white"/>
<path opacity="0.02" d="M582.857 428.814H588.699V434.652H582.857V428.814Z" fill="white"/>
<path opacity="0.46" d="M597.648 436.143H603.49V441.981H597.648V436.143Z" fill="white"/>
<path opacity="0.31" d="M590.315 436.143H596.156V441.981H590.315V436.143Z" fill="white"/>
<path opacity="0.61" d="M582.857 436.143H588.699V441.981H582.857V436.143Z" fill="white"/>
<path opacity="0.03" d="M597.648 443.348H603.49V449.186H597.648V443.348Z" fill="white"/>
<path opacity="0.03" d="M590.315 443.348H596.156V449.186H590.315V443.348Z" fill="white"/>
<path opacity="0.46" d="M582.857 443.348H588.699V449.186H582.857V443.348Z" fill="white"/>
<path opacity="0.32" d="M597.648 450.553H603.49V456.391H597.648V450.553Z" fill="white"/>
<path opacity="0.14" d="M590.315 450.553H596.156V456.391H590.315V450.553Z" fill="white"/>
<path opacity="0.3" d="M582.857 450.553H588.699V456.391H582.857V450.553Z" fill="white"/>
<path opacity="0.04" d="M597.648 457.882H603.49V463.72H597.648V457.882Z" fill="white"/>
<path opacity="0.64" d="M590.315 457.882H596.156V463.72H590.315V457.882Z" fill="white"/>
<path opacity="0.05" d="M582.857 457.882H588.699V463.72H582.857V457.882Z" fill="white"/>
<path opacity="0.15" d="M594.789 474.155H600.631V479.993H594.789V474.155Z" fill="white"/>
<path opacity="0.15" d="M587.332 474.155H593.173V479.993H587.332V474.155Z" fill="white"/>
<path opacity="0.52" d="M579.999 474.155H585.84V479.993H579.999V474.155Z" fill="white"/>
<path opacity="0.58" d="M602.247 481.484H608.088V487.323H602.247V481.484Z" fill="white"/>
<path opacity="0.62" d="M594.789 481.484H600.631V487.323H594.789V481.484Z" fill="white"/>
<path opacity="0.04" d="M587.332 481.484H593.173V487.323H587.332V481.484Z" fill="white"/>
<path opacity="0.06" d="M579.999 481.484H585.84V487.323H579.999V481.484Z" fill="white"/>
<path opacity="0.3" d="M602.247 488.938H608.088V494.776H602.247V488.938Z" fill="white"/>
<path opacity="0.01" d="M594.789 488.938H600.631V494.776H594.789V488.938Z" fill="white"/>
<path opacity="0.37" d="M587.332 488.938H593.173V494.776H587.332V488.938Z" fill="white"/>
<path opacity="0.62" d="M579.999 488.938H585.84V494.776H579.999V488.938Z" fill="white"/>
<path opacity="0.54" d="M602.247 496.391H608.088V502.229H602.247V496.391Z" fill="white"/>
<path opacity="0.21" d="M594.789 496.391H600.631V502.229H594.789V496.391Z" fill="white"/>
<path opacity="0.41" d="M587.332 496.391H593.173V502.229H587.332V496.391Z" fill="white"/>
<path opacity="0.1" d="M579.999 496.391H585.84V502.229H579.999V496.391Z" fill="white"/>
<path opacity="0.17" d="M602.247 503.72H608.088V509.558H602.247V503.72Z" fill="white"/>
<path opacity="0.17" d="M594.789 503.72H600.631V509.558H594.789V503.72Z" fill="white"/>
<path opacity="0.13" d="M587.332 503.72H593.173V509.558H587.332V503.72Z" fill="white"/>
<path opacity="0.5" d="M579.999 503.72H585.84V509.558H579.999V503.72Z" fill="white"/>
<path opacity="0.06" d="M601.377 518.875H607.218V524.713H601.377V518.875Z" fill="white"/>
<path opacity="0.27" d="M594.043 518.875H599.885V524.713H594.043V518.875Z" fill="white"/>
<path opacity="0.51" d="M586.586 518.875H592.428V524.713H586.586V518.875Z" fill="white"/>
<path opacity="0.42" d="M579.128 518.875H584.97V524.713H579.128V518.875Z" fill="white"/>
<path opacity="0.64" d="M571.795 518.875H577.637V524.713H571.795V518.875Z" fill="white"/>
<path opacity="0.29" d="M608.834 525.956H614.676V531.794H608.834V525.956Z" fill="white"/>
<path opacity="0.6" d="M601.377 525.956H607.218V531.794H601.377V525.956Z" fill="white"/>
<path opacity="0.2" d="M594.043 525.956H599.885V531.794H594.043V525.956Z" fill="white"/>
<path opacity="0.24" d="M586.586 525.956H592.428V531.794H586.586V525.956Z" fill="white"/>
<path opacity="0.62" d="M579.128 525.956H584.97V531.794H579.128V525.956Z" fill="white"/>
<path opacity="0.62" d="M571.795 525.956H577.637V531.794H571.795V525.956Z" fill="white"/>
<path opacity="0.25" d="M608.834 533.036H614.676V538.875H608.834V533.036Z" fill="white"/>
<path opacity="0.36" d="M601.377 533.036H607.218V538.875H601.377V533.036Z" fill="white"/>
<path opacity="0.16" d="M594.043 533.036H599.885V538.875H594.043V533.036Z" fill="white"/>
<path opacity="0.1" d="M586.586 533.036H592.428V538.875H586.586V533.036Z" fill="white"/>
<path opacity="0.04" d="M579.128 533.036H584.97V538.875H579.128V533.036Z" fill="white"/>
<path opacity="0.44" d="M571.795 533.036H577.637V538.875H571.795V533.036Z" fill="white"/>
<path opacity="0.68" d="M608.834 540.117H614.676V545.956H608.834V540.117Z" fill="white"/>
<path opacity="0.01" d="M601.377 540.117H607.218V545.956H601.377V540.117Z" fill="white"/>
<path opacity="0.29" d="M594.043 540.117H599.885V545.956H594.043V540.117Z" fill="white"/>
<path opacity="0.66" d="M586.586 540.117H592.428V545.956H586.586V540.117Z" fill="white"/>
<path opacity="0.12" d="M579.128 540.117H584.97V545.956H579.128V540.117Z" fill="white"/>
<path opacity="0.34" d="M571.795 540.117H577.637V545.956H571.795V540.117Z" fill="white"/>
<path opacity="0.36" d="M608.834 547.322H614.676V553.16H608.834V547.322Z" fill="white"/>
<path opacity="0.5" d="M601.377 547.322H607.218V553.16H601.377V547.322Z" fill="white"/>
<path opacity="0.07" d="M594.043 547.322H599.885V553.16H594.043V547.322Z" fill="white"/>
<path opacity="0.64" d="M586.586 547.322H592.428V553.16H586.586V547.322Z" fill="white"/>
<path opacity="0.4" d="M579.128 547.322H584.97V553.16H579.128V547.322Z" fill="white"/>
<path opacity="0.27" d="M571.795 547.322H577.637V553.16H571.795V547.322Z" fill="white"/>
<path opacity="0.09" d="M608.834 554.651H614.676V560.49H608.834V554.651Z" fill="white"/>
<path opacity="0.47" d="M601.377 554.651H607.218V560.49H601.377V554.651Z" fill="white"/>
<path opacity="0.57" d="M594.043 554.651H599.885V560.49H594.043V554.651Z" fill="white"/>
<path opacity="0.12" d="M586.586 554.651H592.428V560.49H586.586V554.651Z" fill="white"/>
<path opacity="0.23" d="M579.128 554.651H584.97V560.49H579.128V554.651Z" fill="white"/>
<path opacity="0.36" d="M571.795 554.651H577.637V560.49H571.795V554.651Z" fill="white"/>
<path d="M447.131 572.291H524.44L447.131 504.962V572.291Z" fill="#333333"/>
<path d="M612.936 573.657H720.075L612.936 480.49V573.657Z" fill="#333333"/>
<path d="M455.707 556.887H478.328V563.844H455.707V556.887Z" fill="#4D4D4D"/>
<path d="M458.317 558.999H475.842L469.752 548.813H464.408L458.317 558.999Z" fill="#4D4D4D"/>
<path d="M552.406 566.701C552.406 571.545 556.259 575.52 560.982 575.52C565.705 575.52 569.558 571.545 569.558 566.701C569.558 561.856 565.705 557.881 560.982 557.881C556.259 557.757 552.406 561.732 552.406 566.701Z" fill="#333333"/>
<path d="M321.597 562.85C321.597 566.08 324.207 568.813 327.315 568.813C330.422 568.813 333.032 566.204 333.032 562.85C333.032 559.62 330.422 556.887 327.315 556.887C324.207 556.887 321.597 559.62 321.597 562.85Z" fill="#333333"/>
<path d="M521.83 563.222C521.83 566.576 524.44 569.309 527.796 569.309C531.028 569.309 533.762 566.576 533.762 563.222C533.762 559.868 531.152 557.135 527.796 557.135C524.44 557.135 521.83 559.868 521.83 563.222Z" fill="#333333"/>
</g>
</g>
<defs>
<clipPath id="clip0">
<rect width="811" height="559" transform="matrix(-1 0 0 1 811.553 -0.000976562)" fill="white"/>
</clipPath>
</defs>
</svg>
